<svg xmlns="http://www.w3.org/2000/svg" viewBox="0 0 512 512" role="img" aria-labelledby="title description">
  <title id="title">SplitEase India — Infinite Unity</title>
  <desc id="description">An extraordinary S-shaped infinite ribbon in the Indian tricolour, joining around an Ashoka Chakra coin.</desc>

  <!-- FESTIVAL PALETTE — edit these four colours only. -->
  <style>
    :root {
      --festival-primary: #ff8311;
      --festival-light: #ffffff;
      --festival-secondary: #079447;
      --festival-accent: #071a78;
    }
  </style>

  <defs>
    <radialGradient id="night" cx="50%" cy="42%" r="76%">
      <stop stop-color="#17263a"/>
      <stop offset=".5" stop-color="#09131f"/>
      <stop offset="1" stop-color="#02060c"/>
    </radialGradient>
    <linearGradient id="rim" x1="0" y1="0" x2="1" y2="1">
      <stop stop-color="#8fa9c4" stop-opacity=".55"/>
      <stop offset=".28" stop-color="#fff" stop-opacity=".06"/>
      <stop offset=".72" stop-color="#fff" stop-opacity=".16"/>
      <stop offset="1" stop-color="#38516b" stop-opacity=".45"/>
    </linearGradient>
    <linearGradient id="saffron" x1="110" y1="86" x2="367" y2="260" gradientUnits="userSpaceOnUse">
      <stop stop-color="#ffbd38"/><stop offset=".38" stop-color="var(--festival-primary)"/><stop offset=".75" stop-color="#ff5b00"/><stop offset="1" stop-color="#b92f00"/>
    </linearGradient>
    <linearGradient id="green" x1="145" y1="266" x2="408" y2="425" gradientUnits="userSpaceOnUse">
      <stop stop-color="#006a39"/><stop offset=".32" stop-color="var(--festival-secondary)"/><stop offset=".7" stop-color="#14c66a"/><stop offset="1" stop-color="#00562b"/>
    </linearGradient>
    <linearGradient id="whiteRibbon" x1="150" y1="225" x2="365" y2="292" gradientUnits="userSpaceOnUse">
      <stop stop-color="#a9bdd0"/><stop offset=".22" stop-color="#fff"/><stop offset=".58" stop-color="#e8f4ff"/><stop offset=".82" stop-color="#fff"/><stop offset="1" stop-color="#91a9be"/>
    </linearGradient>
    <linearGradient id="goldEdge" x1="0" y1="0" x2="1" y2="1">
      <stop stop-color="#fff6c2"/><stop offset=".4" stop-color="#e2a93a"/><stop offset=".7" stop-color="#fff1a0"/><stop offset="1" stop-color="#805015"/>
    </linearGradient>
    <radialGradient id="coin" cx="36%" cy="28%" r="78%">
      <stop stop-color="#fff"/><stop offset=".58" stop-color="#eef6ff"/><stop offset="1" stop-color="#9db2c7"/>
    </radialGradient>
    <filter id="cardShadow" x="-30%" y="-30%" width="160%" height="175%">
      <feGaussianBlur in="SourceAlpha" stdDeviation="17" result="blur"/>
      <feOffset dy="13" result="offset"/>
      <feColorMatrix in="offset" values="0 0 0 0 0 0 0 0 0 0 0 0 0 0 0 0 0 0 .82 0"/>
      <feMerge><feMergeNode/><feMergeNode in="SourceGraphic"/></feMerge>
    </filter>
    <filter id="orangeGlow" x="-50%" y="-50%" width="200%" height="200%">
      <feGaussianBlur stdDeviation="17"/>
    </filter>
    <filter id="greenGlow" x="-50%" y="-50%" width="200%" height="200%">
      <feGaussianBlur stdDeviation="17"/>
    </filter>
    <filter id="float" x="-30%" y="-30%" width="160%" height="180%">
      <feGaussianBlur in="SourceAlpha" stdDeviation="8" result="b"/>
      <feOffset dy="10" result="o"/>
      <feColorMatrix in="o" values="0 0 0 0 0 0 0 0 0 0 0 0 0 0 0 0 0 0 .7 0"/>
      <feMerge><feMergeNode/><feMergeNode in="SourceGraphic"/></feMerge>
    </filter>
    <filter id="chakraGlow" x="-80%" y="-80%" width="260%" height="260%">
      <feGaussianBlur in="SourceAlpha" stdDeviation="4" result="b"/>
      <feFlood flood-color="#486cff" flood-opacity=".85"/>
      <feComposite in2="b" operator="in"/>
      <feMerge><feMergeNode/><feMergeNode in="SourceGraphic"/></feMerge>
    </filter>
  </defs>

  <!-- Luxury midnight app tile. -->
  <rect x="30" y="30" width="452" height="452" rx="108" fill="url(#night)" stroke="url(#rim)" stroke-width="2.5" filter="url(#cardShadow)"/>
  <rect x="41" y="41" width="430" height="430" rx="97" fill="none" stroke="#fff" stroke-opacity=".055"/>

  <!-- Controlled colour aura: energy without visual clutter. -->
  <ellipse cx="230" cy="158" rx="142" ry="68" fill="var(--festival-primary)" opacity=".18" filter="url(#orangeGlow)"/>
  <ellipse cx="283" cy="357" rx="142" ry="68" fill="var(--festival-secondary)" opacity=".18" filter="url(#greenGlow)"/>

  <g filter="url(#float)">
    <!-- The upper ribbon: a rising saffron wing that becomes the top of the S. -->
    <path d="M82 229C112 128 202 84 308 107c45 10 84 33 116 65l-55 57c-25-26-54-42-89-47-59-9-108 14-139 65z" fill="#030812" stroke="#030812" stroke-width="19" stroke-linejoin="round"/>
    <path d="M82 229C112 128 202 84 308 107c45 10 84 33 116 65l-55 57c-25-26-54-42-89-47-59-9-108 14-139 65z" fill="url(#saffron)" stroke="url(#goldEdge)" stroke-width="3" stroke-linejoin="round"/>
    <path d="M107 205c40-78 116-105 196-83 32 9 61 25 89 50" fill="none" stroke="#fff" stroke-width="7" stroke-linecap="round" opacity=".45"/>

    <!-- The lower ribbon completes the S and implies two halves settling together. -->
    <path d="M430 283c-29 101-120 145-226 122-45-10-84-33-116-65l55-57c25 26 54 42 89 47 59 9 108-14 139-65z" fill="#030812" stroke="#030812" stroke-width="19" stroke-linejoin="round"/>
    <path d="M430 283c-29 101-120 145-226 122-45-10-84-33-116-65l55-57c25 26 54 42 89 47 59 9 108-14 139-65z" fill="url(#green)" stroke="url(#goldEdge)" stroke-width="3" stroke-linejoin="round"/>
    <path d="M405 307c-40 78-116 105-196 83-32-9-61-25-89-50" fill="none" stroke="#fff" stroke-width="7" stroke-linecap="round" opacity=".38"/>

    <!-- White bridge turns two ribbons into one impossible, continuous S. -->
    <path d="M141 247c31 49 66 72 115 72s84-23 115-54c-31-49-66-72-115-72s-84 23-115 54z" fill="#020711" stroke="#020711" stroke-width="17" stroke-linejoin="round"/>
    <path d="M141 247c31 49 66 72 115 72s84-23 115-54c-31-49-66-72-115-72s-84 23-115 54z" fill="url(#whiteRibbon)" stroke="url(#goldEdge)" stroke-width="3" stroke-linejoin="round"/>
    <path d="M164 245c28 33 56 49 92 49 35 0 65-14 91-36" fill="none" stroke="#fff" stroke-width="6" stroke-linecap="round" opacity=".78"/>
  </g>

  <!-- Split coin + India: the product meaning lives at the exact join. -->
  <g transform="translate(256 256)" filter="url(#chakraGlow)">
    <circle r="54" fill="#030915" stroke="url(#goldEdge)" stroke-width="5"/>
    <circle r="46" fill="url(#coin)" stroke="#fff" stroke-width="2"/>
    <circle r="34" fill="none" stroke="var(--festival-accent)" stroke-width="4"/>
    <g stroke="var(--festival-accent)" stroke-width="2">
      <path id="spoke" d="M0-6V-33"/>
      <use href="#spoke" transform="rotate(15)"/><use href="#spoke" transform="rotate(30)"/><use href="#spoke" transform="rotate(45)"/>
      <use href="#spoke" transform="rotate(60)"/><use href="#spoke" transform="rotate(75)"/><use href="#spoke" transform="rotate(90)"/>
      <use href="#spoke" transform="rotate(105)"/><use href="#spoke" transform="rotate(120)"/><use href="#spoke" transform="rotate(135)"/>
      <use href="#spoke" transform="rotate(150)"/><use href="#spoke" transform="rotate(165)"/><use href="#spoke" transform="rotate(180)"/>
      <use href="#spoke" transform="rotate(195)"/><use href="#spoke" transform="rotate(210)"/><use href="#spoke" transform="rotate(225)"/>
      <use href="#spoke" transform="rotate(240)"/><use href="#spoke" transform="rotate(255)"/><use href="#spoke" transform="rotate(270)"/>
      <use href="#spoke" transform="rotate(285)"/><use href="#spoke" transform="rotate(300)"/><use href="#spoke" transform="rotate(315)"/>
      <use href="#spoke" transform="rotate(330)"/><use href="#spoke" transform="rotate(345)"/>
    </g>
    <circle r="7" fill="var(--festival-accent)"/>
    <circle r="2.5" fill="#d9e5ff"/>
    <!-- A razor-thin split through the coin subtly communicates bill splitting. -->
    <path d="M0-45V-9M0 9v36" stroke="#fff" stroke-width="2.5" opacity=".9"/>
  </g>

  <!-- Tiny unity sparks balance the composition and remain visible at favicon scale. -->
  <g fill="#fff">
    <path d="M103 132l3 9 9 3-9 3-3 9-3-9-9-3 9-3z" opacity=".75"/>
    <path d="M409 361l2.5 7.5 7.5 2.5-7.5 2.5-2.5 7.5-2.5-7.5-7.5-2.5 7.5-2.5z" opacity=".62"/>
  </g>
</svg>
